<svg xmlns="http://www.w3.org/2000/svg" viewBox="0 0 146.6 117.19"><defs><style>.cls-1{fill:#fff;}.cls-2{fill:#009fe3;}</style></defs><g id="Camada_2" data-name="Camada 2"><g id="Layer_1" data-name="Layer 1"><path class="cls-1" d="M21.86,107.26l1.68,4.68h.12l1.19-6.53h1.23l-1.65,8.41h-1.5l-1.61-4.64h-.05l-1.68,4.64h-1.5l-1.77-8.41h1.3L19,112h.1l1.63-4.71Z"/><path class="cls-1" d="M35.15,112.76a4.57,4.57,0,0,1-.72.51,5.31,5.31,0,0,1-.9.4,6.43,6.43,0,0,1-2.08.35,4.73,4.73,0,0,1-1.79-.31,3.28,3.28,0,0,1-1.29-.89,3.8,3.8,0,0,1-.79-1.39,5.64,5.64,0,0,1-.27-1.81,5.77,5.77,0,0,1,.29-1.89,3.79,3.79,0,0,1,.85-1.38,3.59,3.59,0,0,1,1.35-.84,4.89,4.89,0,0,1,1.76-.3,5.14,5.14,0,0,1,1.4.19,2.77,2.77,0,0,1,1.22.69,3.43,3.43,0,0,1,.81,1.42,6.7,6.7,0,0,1,.21,2.33H28.7a2.9,2.9,0,0,0,.82,2.26,3.06,3.06,0,0,0,2.17.75,4,4,0,0,0,.9-.11c.29-.08.58-.16.84-.26a4.83,4.83,0,0,0,.72-.34,3,3,0,0,0,.48-.34Zm-3.55-6.44a4.36,4.36,0,0,0-1,.12,2.6,2.6,0,0,0-.88.39,2.34,2.34,0,0,0-.62.73,3,3,0,0,0-.31,1.1H34a2.62,2.62,0,0,0-.71-1.72A2.27,2.27,0,0,0,31.6,106.32Z"/><path class="cls-1" d="M36.37,102.05h2.69v4.32h.09a3,3,0,0,1,1.12-.86,3.72,3.72,0,0,1,1.5-.3c2.47,0,3.7,1.43,3.7,4.27a4.44,4.44,0,0,1-1.19,3.33,4.74,4.74,0,0,1-3.4,1.15,8.34,8.34,0,0,1-1.88-.2,3.91,3.91,0,0,1-1.23-.48v-10.1h-1.4Zm5.23,4.29a2.33,2.33,0,0,0-1.63.57,3.36,3.36,0,0,0-.91,1.61v3.87a3.62,3.62,0,0,0,.93.32,5.15,5.15,0,0,0,1.13.12,3.67,3.67,0,0,0,1.22-.19,2.32,2.32,0,0,0,.93-.61,2.68,2.68,0,0,0,.6-1,4.87,4.87,0,0,0,.21-1.51,5.21,5.21,0,0,0-.14-1.21,2.88,2.88,0,0,0-.43-1,2.05,2.05,0,0,0-.76-.67A2.54,2.54,0,0,0,41.6,106.34Z"/><path class="cls-1" d="M62.37,102.05h2.75V111c0,.1,0,.22,0,.38s0,.31.05.47,0,.34,0,.5,0,.31.07.43h1.13v1.09H64.18L64,112.53h-.07a3.06,3.06,0,0,1-1.1,1.07,3.34,3.34,0,0,1-1.69.42A3.45,3.45,0,0,1,58.36,113a6.3,6.3,0,0,1-.59-5.2,3.52,3.52,0,0,1,.86-1.36,3.59,3.59,0,0,1,1.35-.84,5.16,5.16,0,0,1,1.76-.28,6,6,0,0,1,.63,0,4,4,0,0,1,.51,0,3,3,0,0,1,.45.09l.46.12v-2.38H62.37Zm-1,10.85a2.31,2.31,0,0,0,1.61-.53,2.93,2.93,0,0,0,.81-1.59v-3.9a2.4,2.4,0,0,0-.83-.37,5,5,0,0,0-1.22-.12,2.83,2.83,0,0,0-2.11.78,3.4,3.4,0,0,0-.77,2.46,5.88,5.88,0,0,0,.13,1.29,3,3,0,0,0,.41,1,2.17,2.17,0,0,0,.78.69A2.68,2.68,0,0,0,61.37,112.9Z"/><path class="cls-1" d="M75.51,112.76a4.47,4.47,0,0,1-.71.51,6.13,6.13,0,0,1-.9.4,6.93,6.93,0,0,1-1,.26,6.35,6.35,0,0,1-1.07.09,4.68,4.68,0,0,1-1.78-.31,3.32,3.32,0,0,1-1.3-.89,3.8,3.8,0,0,1-.79-1.39,5.64,5.64,0,0,1-.27-1.81,5.51,5.51,0,0,1,.3-1.89,3.66,3.66,0,0,1,.85-1.38,3.55,3.55,0,0,1,1.34-.84,5,5,0,0,1,1.77-.3,5.06,5.06,0,0,1,1.39.19,2.71,2.71,0,0,1,1.22.69,3.33,3.33,0,0,1,.82,1.42,6.49,6.49,0,0,1,.2,2.33H69.07a2.93,2.93,0,0,0,.81,2.26,3.08,3.08,0,0,0,2.17.75,3.82,3.82,0,0,0,.9-.11c.3-.08.58-.16.85-.26a4.28,4.28,0,0,0,.71-.34,2.3,2.3,0,0,0,.48-.34ZM72,106.32a4.44,4.44,0,0,0-1,.12,2.47,2.47,0,0,0-.87.39,2.21,2.21,0,0,0-.62.73,2.8,2.8,0,0,0-.31,1.1h5.21a2.52,2.52,0,0,0-.71-1.72A2.26,2.26,0,0,0,72,106.32Z"/><path class="cls-1" d="M81.78,112.19H82l2.63-6.78h1.47l-3.55,8.41H81l-3.61-8.41H79Z"/><path class="cls-1" d="M95.69,112.76a4.47,4.47,0,0,1-.71.51,6.13,6.13,0,0,1-.9.4,6.93,6.93,0,0,1-1,.26A6.35,6.35,0,0,1,92,114a4.71,4.71,0,0,1-1.78-.31,3.21,3.21,0,0,1-1.29-.89,3.66,3.66,0,0,1-.79-1.39,5.37,5.37,0,0,1-.28-1.81,5.51,5.51,0,0,1,.3-1.89,3.79,3.79,0,0,1,.85-1.38,3.59,3.59,0,0,1,1.35-.84,4.89,4.89,0,0,1,1.76-.3,5.14,5.14,0,0,1,1.4.19,2.77,2.77,0,0,1,1.22.69,3.43,3.43,0,0,1,.81,1.42,6.49,6.49,0,0,1,.2,2.33H89.25a2.93,2.93,0,0,0,.81,2.26,3.1,3.1,0,0,0,2.18.75,3.8,3.8,0,0,0,.89-.11c.3-.08.58-.16.85-.26a4.83,4.83,0,0,0,.72-.34,2.49,2.49,0,0,0,.47-.34Zm-3.54-6.44a4.44,4.44,0,0,0-1.05.12,2.47,2.47,0,0,0-.87.39,2.21,2.21,0,0,0-.62.73,3,3,0,0,0-.31,1.1h5.22a2.58,2.58,0,0,0-.72-1.72A2.26,2.26,0,0,0,92.15,106.32Z"/><path class="cls-1" d="M98.89,102.05h2.81v9a2.31,2.31,0,0,0,.34,1.44,1.24,1.24,0,0,0,1,.42,2.51,2.51,0,0,0,.9-.16,4.25,4.25,0,0,0,1-.58l.61.93a3.51,3.51,0,0,1-.59.42,4.9,4.9,0,0,1-.66.31,4.32,4.32,0,0,1-.68.19,2.81,2.81,0,0,1-.62.07,3.52,3.52,0,0,1-1.12-.16,1.94,1.94,0,0,1-.81-.51,2.3,2.3,0,0,1-.5-.93,5.36,5.36,0,0,1-.17-1.44v-7.82H98.89Z"/><path class="cls-1" d="M107.94,109.62A4.63,4.63,0,0,1,109,106.4a3.83,3.83,0,0,1,3-1.19,4.42,4.42,0,0,1,1.83.35,3.64,3.64,0,0,1,1.27.93,4,4,0,0,1,.75,1.4,6,6,0,0,1,.24,1.73,5.75,5.75,0,0,1-.27,1.82,3.72,3.72,0,0,1-.79,1.39,3.45,3.45,0,0,1-1.29.88A4.54,4.54,0,0,1,112,114a4.4,4.4,0,0,1-1.81-.34,3.59,3.59,0,0,1-1.28-.93,3.78,3.78,0,0,1-.75-1.4A6.08,6.08,0,0,1,107.94,109.62Zm1.39,0a4.83,4.83,0,0,0,.15,1.18,2.93,2.93,0,0,0,.46,1,2.33,2.33,0,0,0,.83.76,2.51,2.51,0,0,0,1.25.29,2.48,2.48,0,0,0,2-.83,3.85,3.85,0,0,0,.67-2.45,4.73,4.73,0,0,0-.14-1.19,2.94,2.94,0,0,0-.47-1.05,2.57,2.57,0,0,0-.84-.76,2.5,2.5,0,0,0-1.24-.28,2.45,2.45,0,0,0-2,.82A3.88,3.88,0,0,0,109.33,109.62Z"/><path class="cls-1" d="M118.68,108.36V108l0-.5c0-.18,0-.35,0-.52s0-.31-.06-.43h-1.13v-1.1h2.24l.17,1.18h.08a3.79,3.79,0,0,1,1.15-1,3.38,3.38,0,0,1,1.71-.4,3.51,3.51,0,0,1,2.71,1,4.78,4.78,0,0,1,.91,3.25,5.71,5.71,0,0,1-.31,1.91,4.22,4.22,0,0,1-.89,1.44,3.84,3.84,0,0,1-1.38.9A4.63,4.63,0,0,1,122,114a6.22,6.22,0,0,1-.63,0l-.5-.07a3.28,3.28,0,0,1-.45-.11,3.89,3.89,0,0,1-.47-.17v3.54h-1.3Zm3.87-1.9a2.55,2.55,0,0,0-1,.18,2.91,2.91,0,0,0-.79.49,2.53,2.53,0,0,0-.56.67,1.8,1.8,0,0,0-.27.74v3.82a3.19,3.19,0,0,0,.83.4,4.49,4.49,0,0,0,1.22.14,2.78,2.78,0,0,0,2.15-.88,3.7,3.7,0,0,0,.81-2.58,3.74,3.74,0,0,0-.56-2.2A2.16,2.16,0,0,0,122.55,106.46Z"/><path class="cls-1" d="M136.06,112.76a4.15,4.15,0,0,1-.72.51,5.31,5.31,0,0,1-.9.4,6.31,6.31,0,0,1-2.08.35,4.68,4.68,0,0,1-1.78-.31,3.32,3.32,0,0,1-1.3-.89,3.8,3.8,0,0,1-.79-1.39,5.64,5.64,0,0,1-.27-1.81,5.51,5.51,0,0,1,.3-1.89,3.64,3.64,0,0,1,.84-1.38,3.59,3.59,0,0,1,1.35-.84,5,5,0,0,1,1.77-.3,5.06,5.06,0,0,1,1.39.19,2.71,2.71,0,0,1,1.22.69,3.44,3.44,0,0,1,.82,1.42,6.73,6.73,0,0,1,.2,2.33h-6.49a2.93,2.93,0,0,0,.81,2.26,3.08,3.08,0,0,0,2.17.75,4,4,0,0,0,.9-.11c.3-.08.58-.16.85-.26a4.7,4.7,0,0,0,.71-.34,2.3,2.3,0,0,0,.48-.34Zm-3.54-6.44a4.44,4.44,0,0,0-1.05.12,2.47,2.47,0,0,0-.87.39,2.21,2.21,0,0,0-.62.73,2.8,2.8,0,0,0-.31,1.1h5.21a2.57,2.57,0,0,0-.71-1.72A2.26,2.26,0,0,0,132.52,106.32Z"/><path class="cls-1" d="M138.36,113.82V112.7h2.27v-6.16h-2.27v-1.13h3.15l.27,1.1h.08a6.13,6.13,0,0,1,1.28-.9,3.65,3.65,0,0,1,1.68-.37,1.76,1.76,0,0,1,.92.22,1.49,1.49,0,0,1,.54.64,3.79,3.79,0,0,1,.26,1q.06.6.06,1.35l-1.17,0a4.37,4.37,0,0,0-.21-1.57.77.77,0,0,0-.77-.5,2.77,2.77,0,0,0-.94.15,3.11,3.11,0,0,0-.73.37,3.53,3.53,0,0,0-.53.44,1.88,1.88,0,0,0-.32.37v5h3.23v1.12Z"/><path class="cls-1" d="M16.32,0v16.7h3.34V13.49H36.35V11.71a1.68,1.68,0,0,1,1.55-1.64h1.75V0Zm18.38,10H21.24a1.64,1.64,0,0,1-1.6-1.64v-5l16.67,0,0,4.78c0,.06,0,.12,0,.18s0,.11,0,.17h0a1.64,1.64,0,0,1-1.51,1.47Zm1.62,0Z"/><path class="cls-1" d="M46.39,3.39V6.72H63v3.35H46.39v3.44h20v3.26H43V9.54h2.23a1.11,1.11,0,0,0,0-2.22H43V0H66.43V3.39Z"/><path class="cls-1" d="M91.5,3.35A1.65,1.65,0,0,1,89.85,1.7V0H69.71V16.8H89.85V15.14a1.65,1.65,0,0,1,1.65-1.65h1.65V3.35ZM73.11,13.49V3.35H88.2A1.65,1.65,0,0,1,89.85,5v6.84a1.65,1.65,0,0,1-1.65,1.65Z"/><path class="cls-1" d="M117.71,7.27h2.22V0H96.55V16.69h3.31V10.07H116a.57.57,0,0,1,.57.57v6.13h3.36V9.48h-2.22a1.11,1.11,0,0,1,0-2.21Zm-1.14-1.16a.58.58,0,0,1-.57.57H99.86V3.31h16.71Z"/><path class="cls-1" d="M145.5,2.21a1.1,1.1,0,0,1-1.11-1.11V0h-19V1.12a1.11,1.11,0,0,1-1.1,1.11h-1.11V14.54h1.11a1.1,1.1,0,0,1,1.1,1.1v1.11h19V15.64a1.1,1.1,0,0,1,1.11-1.1h1.1V2.21Zm-2.18,11.24H126.58V3.39h16.74Z"/><path class="cls-2" d="M0,33.61V29.89H3.72V27.1H7.44v9.3H3.72V33.61ZM11.16,36.4v3.72H7.44V36.4Zm0-13V27.1H7.44V23.38Z"/><path class="cls-2" d="M82.35,76.5v3.73H78.62V83H74.89V73.7h3.73v2.8ZM71.17,73.7V70h3.72V73.7Zm0,13V83h3.72v3.73Z"/><path class="cls-1" d="M19.9,26.61v3.33H36.55v3.35H19.9V40H16.51V32.76h2.23a1.11,1.11,0,1,0,0-2.22H16.51V23.26H40v3.35Z"/><path class="cls-1" d="M65.39,25.55a1.1,1.1,0,0,1-1.11-1.11V23.35h-19v1.11a1.11,1.11,0,0,1-1.1,1.11H43.11V37.88h1.11a1.1,1.1,0,0,1,1.1,1.1v1.11h19V39a1.1,1.1,0,0,1,1.11-1.1h1.1V25.55ZM63.21,36.79H46.47V26.73H63.21Z"/><path class="cls-1" d="M65.39,48.81a1.11,1.11,0,0,1-1.11-1.11V46.61h-19v1.1a1.1,1.1,0,0,1-1.1,1.11H43.11V61.13h1.11a1.11,1.11,0,0,1,1.1,1.11v1.11h19V62.24a1.11,1.11,0,0,1,1.11-1.11h1.1V48.81ZM63.21,60H46.47V50H63.21Z"/><path class="cls-1" d="M63.34,72.21V70h-19v1.11a1.11,1.11,0,0,1-1.11,1.1H42.17V86.75h3.36V80H62.27v6.75h3.29V72.21Zm-1.07,4.63H45.53V74.5a1.11,1.11,0,0,1,1.11-1.11H61.16a1.1,1.1,0,0,1,1.11,1.11Z"/><path class="cls-1" d="M36.48,77.19h2.21V70H15.31V86.62h3.32V80h16.7v6.7h3.36V79.41H36.48a1.11,1.11,0,1,1,0-2.22Zm-1.15-.58H18.63V73.24h16.7Z"/><path class="cls-1" d="M93.3,23.38V40.12H86.55V37.88a1.11,1.11,0,0,0-1.88-.8l-8.46-8.46a1.11,1.11,0,0,0-.79-1.89H73.21V40.06H69.85V23.38h6.74v2.17a1.1,1.1,0,0,0,1.89.78l8.42,8.43a1.11,1.11,0,0,0,.76,1.92H90V23.38Z"/><polygon class="cls-1" points="39.84 46.68 39.84 49.88 29.73 49.88 29.73 63.34 26.36 63.34 26.36 50.12 16.43 50.12 16.43 46.68 39.84 46.68"/><path class="cls-1" d="M93.25,46.74V61.13H92.14A1.11,1.11,0,0,0,91,62.24v1.11h-19V62.24A1.11,1.11,0,0,0,71,61.13H69.86V46.74h3.36V60H90V46.74Z"/></g></g></svg>