<svg xmlns="http://www.w3.org/2000/svg" viewBox="0 0 167.1 175.33"><defs><style>.cls-1{fill:#009fe3;}.cls-2{fill:#fff;}</style></defs><g id="Camada_2" data-name="Camada 2"><g id="Layer_1" data-name="Layer 1"><path class="cls-1" d="M42.81,74.88V66.64h8.24V60.46H59.3V81.07H51.05V74.88Zm24.73,6.19v8.24H59.3V81.07Zm0-28.86v8.25H59.3V52.21Z"/><path class="cls-1" d="M124.21,100.6v8.25H116V115h-8.24V94.42H116v6.18ZM99.48,94.42V86.18h8.25v8.24Zm0,28.85V115h8.25v8.24Z"/><path class="cls-2" d="M51.1,13.65l4.67,4.82.14-.06-2.15-8.7L55.27,9,57.91,20.3l-1.84.83L51.5,16.31l-.06,0L52,23l-1.85.83-6.85-9.37,1.6-.72,5.32,7.32L50.3,21l-.61-6.71Z"/><path class="cls-2" d="M72,15a5.76,5.76,0,0,1-.79.88,7.39,7.39,0,0,1-1.06.81,8.3,8.3,0,0,1-1.26.65,8.55,8.55,0,0,1-1.38.45A6.23,6.23,0,0,1,65,18a4.64,4.64,0,0,1-2-.77,5.45,5.45,0,0,1-1.46-1.59,7.79,7.79,0,0,1-.91-2.31,7.46,7.46,0,0,1-.19-2.57,5,5,0,0,1,.7-2.07,5.12,5.12,0,0,1,1.51-1.53,6.86,6.86,0,0,1,2.24-.93A7.48,7.48,0,0,1,66.82,6a3.62,3.62,0,0,1,1.82.55,4.54,4.54,0,0,1,1.51,1.61,8.8,8.8,0,0,1,1,3l-8.54,2a3.91,3.91,0,0,0,1.76,2.73,4.13,4.13,0,0,0,3.08.33,5.29,5.29,0,0,0,1.15-.42,11.36,11.36,0,0,0,1-.6,6.69,6.69,0,0,0,.83-.66,4.21,4.21,0,0,0,.53-.59Zm-6.63-7.4A5.76,5.76,0,0,0,64,8.12a3.23,3.23,0,0,0-1,.78,3.11,3.11,0,0,0-.6,1.14,4.1,4.1,0,0,0-.07,1.55L69.15,10a3.47,3.47,0,0,0-1.47-2A3,3,0,0,0,65.32,7.64Z"/><path class="cls-2" d="M73.78.12,77.41,0l.2,5.84h.11a3.89,3.89,0,0,1,1.48-1.2,4.87,4.87,0,0,1,2-.48q5-.17,5.19,5.6a5.92,5.92,0,0,1-1.46,4.54A6.31,6.31,0,0,1,80.4,16a10.76,10.76,0,0,1-2.55-.19,4.87,4.87,0,0,1-1.68-.58L75.71,1.58l-1.88.06ZM81,5.68a3.14,3.14,0,0,0-2.18.84A4.52,4.52,0,0,0,77.7,8.75L77.88,14a4.92,4.92,0,0,0,1.26.39,7,7,0,0,0,1.53.11,5,5,0,0,0,1.64-.32,3.12,3.12,0,0,0,1.23-.86,3.66,3.66,0,0,0,.76-1.44,6.82,6.82,0,0,0,.22-2.06,7.12,7.12,0,0,0-.24-1.63,4.18,4.18,0,0,0-.62-1.33A2.75,2.75,0,0,0,82.59,6,3.26,3.26,0,0,0,81,5.68Z"/><path class="cls-2" d="M115.2,5.73,118.67,7l-4.19,11.27c0,.13-.1.29-.16.49s-.12.4-.17.62-.11.44-.16.66-.09.41-.12.57l1.43.54-.52,1.38-2.85-1.06.4-1.72-.09,0a4,4,0,0,1-1.89.83,4.44,4.44,0,0,1-2.34-.25,4.71,4.71,0,0,1-3-2.67A6.89,6.89,0,0,1,105.4,13a7.33,7.33,0,0,1,1.27-2.23,4.74,4.74,0,0,1,1.74-1.32,4.87,4.87,0,0,1,2.1-.42,6.92,6.92,0,0,1,2.36.47c.3.11.56.22.79.32l.63.3a4.59,4.59,0,0,1,.52.33l.52.38,1.13-3-1.79-.66ZM108.82,19a3.07,3.07,0,0,0,2.28.08,3.73,3.73,0,0,0,1.77-1.63l1.84-4.94a3.39,3.39,0,0,0-.87-.86,6.48,6.48,0,0,0-1.49-.72,3.78,3.78,0,0,0-3,0,4.6,4.6,0,0,0-2.14,2.76,8.66,8.66,0,0,0-.45,1.69,3.93,3.93,0,0,0,0,1.5,2.77,2.77,0,0,0,.66,1.24A3.48,3.48,0,0,0,108.82,19Z"/><path class="cls-2" d="M126.39,27.91a5.52,5.52,0,0,1-1.18.08,8,8,0,0,1-1.32-.17,10,10,0,0,1-1.35-.43,7.89,7.89,0,0,1-1.3-.65,6.33,6.33,0,0,1-1.83-1.62,4.62,4.62,0,0,1-.86-1.94,5.29,5.29,0,0,1,.08-2.16,7.78,7.78,0,0,1,1-2.28,7.62,7.62,0,0,1,1.68-2,4.86,4.86,0,0,1,2-1,5,5,0,0,1,2.15,0,7.45,7.45,0,0,1,3.72,2.12,3.79,3.79,0,0,1,.91,1.67,4.49,4.49,0,0,1-.07,2.2,8.69,8.69,0,0,1-1.41,2.82L121.06,20a3.94,3.94,0,0,0-.67,3.18,4.16,4.16,0,0,0,2,2.4,4.47,4.47,0,0,0,1.11.51,8.62,8.62,0,0,0,1.16.3,5.14,5.14,0,0,0,1.06.12,3.5,3.5,0,0,0,.78,0Zm.49-9.92a5.92,5.92,0,0,0-1.28-.6,3.24,3.24,0,0,0-1.29-.17,2.93,2.93,0,0,0-1.22.4,3.77,3.77,0,0,0-1.14,1l6,3.7a3.51,3.51,0,0,0,.4-2.49A3.06,3.06,0,0,0,126.88,18Z"/><path class="cls-2" d="M133.9,33.28l.18.17,8.83-4.31,1.45,1.34-11.24,5.09-1.45-1.34,4.13-11.66L137.34,24Z"/><path class="cls-2" d="M145.91,48.68a5.43,5.43,0,0,1-1.12-.37,8,8,0,0,1-1.16-.66,9.31,9.31,0,0,1-1.1-.91,9.05,9.05,0,0,1-.95-1.09,6.56,6.56,0,0,1-1.08-2.19,4.81,4.81,0,0,1-.06-2.13,5.24,5.24,0,0,1,.89-2,7.69,7.69,0,0,1,1.76-1.75,7.82,7.82,0,0,1,2.29-1.18,4.82,4.82,0,0,1,4.18.62,6.74,6.74,0,0,1,1.73,1.69,7.19,7.19,0,0,1,.91,1.68,3.53,3.53,0,0,1,.21,1.88,4.41,4.41,0,0,1-.89,2,8.89,8.89,0,0,1-2.38,2.08L144,39.32A4,4,0,0,0,142.15,42a4.14,4.14,0,0,0,.91,3,4.72,4.72,0,0,0,.84.89,8,8,0,0,0,1,.72,6.2,6.2,0,0,0,.93.51,3.83,3.83,0,0,0,.75.25Zm4.2-9a6.06,6.06,0,0,0-1-1A3.33,3.33,0,0,0,148,38a2.88,2.88,0,0,0-1.28-.1,3.93,3.93,0,0,0-1.45.54l4.16,5.69A3.5,3.5,0,0,0,150.76,42,3.06,3.06,0,0,0,150.11,39.68Z"/><path class="cls-2" d="M161.5,47l1.6,3.44-11,5.1a3.14,3.14,0,0,0-1.58,1.25,1.66,1.66,0,0,0,.07,1.48,3.32,3.32,0,0,0,.72,1,5.12,5.12,0,0,0,1.24.84l-.79,1.27a5.19,5.19,0,0,1-.85-.49,5.78,5.78,0,0,1-.76-.63,5.17,5.17,0,0,1-.62-.71,4.42,4.42,0,0,1-.44-.73,5.18,5.18,0,0,1-.44-1.45,2.69,2.69,0,0,1,.16-1.3,3.3,3.3,0,0,1,.86-1.14,7.2,7.2,0,0,1,1.67-1L161,49.41l-.84-1.81Z"/><path class="cls-2" d="M157.66,63.91a6.29,6.29,0,0,1,4.57.35,5.21,5.21,0,0,1,2.53,3.6,6.06,6.06,0,0,1,.13,2.51,4.84,4.84,0,0,1-.82,2,5.11,5.11,0,0,1-1.59,1.43,8.47,8.47,0,0,1-4.68,1.11,5.24,5.24,0,0,1-2.08-.59,4.89,4.89,0,0,1-1.57-1.41,6.27,6.27,0,0,1-1-2.19,5.79,5.79,0,0,1-.13-2.49,4.85,4.85,0,0,1,.81-2,5.16,5.16,0,0,1,1.6-1.43A7.6,7.6,0,0,1,157.66,63.91Zm.45,1.83a6.32,6.32,0,0,0-1.5.56,4.22,4.22,0,0,0-1.24,1,3.16,3.16,0,0,0-.73,1.33,3.5,3.5,0,0,0,0,1.73,3.36,3.36,0,0,0,1.74,2.39,5.15,5.15,0,0,0,3.43.1,6.76,6.76,0,0,0,1.52-.56,4.44,4.44,0,0,0,1.23-1,3.29,3.29,0,0,0,.72-1.34,3.5,3.5,0,0,0,0-1.73,3.33,3.33,0,0,0-1.73-2.38A5.18,5.18,0,0,0,158.11,65.74Z"/><path class="cls-2" d="M162.6,79.54l.54,0,.68-.07.69-.08.58-.11L165,77.73l1.47-.07.14,3-1.58.3v.11a5.3,5.3,0,0,1,1.4,1.5,4.63,4.63,0,0,1,.63,2.28,4.72,4.72,0,0,1-1.17,3.72A6.45,6.45,0,0,1,161.59,90a7.44,7.44,0,0,1-2.6-.31,5.36,5.36,0,0,1-2-1.1,5.43,5.43,0,0,1-1.31-1.81,6.54,6.54,0,0,1-.54-2.39c0-.32,0-.6,0-.85a6.83,6.83,0,0,1,.06-.69c0-.2.07-.41.12-.61s.12-.41.2-.64l-4.77.21-.08-1.75Zm2.8,5.11a3.21,3.21,0,0,0-.31-1.27,3.77,3.77,0,0,0-1.64-1.76,2.7,2.7,0,0,0-1-.32l-5.17.23a4.23,4.23,0,0,0-.48,1.15,5.71,5.71,0,0,0-.12,1.65A3.81,3.81,0,0,0,158,87.19a6.17,6.17,0,0,0,6.47,0A2.92,2.92,0,0,0,165.4,84.65Z"/><path class="cls-2" d="M155.35,103.84a5.15,5.15,0,0,1-.53-1,8.1,8.1,0,0,1-.36-1.29,9.1,9.1,0,0,1-.14-1.41,7,7,0,0,1,.09-1.44,6.28,6.28,0,0,1,.77-2.32,4.63,4.63,0,0,1,1.45-1.56,5.48,5.48,0,0,1,2-.78,7.65,7.65,0,0,1,2.48,0,7.26,7.26,0,0,1,2.46.77,4.83,4.83,0,0,1,1.67,1.41,4.89,4.89,0,0,1,.87,2,6.73,6.73,0,0,1,0,2.42,7,7,0,0,1-.53,1.82,3.61,3.61,0,0,1-1.17,1.49,4.38,4.38,0,0,1-2.05.81,8.91,8.91,0,0,1-3.16-.19l1.3-8.68a4,4,0,0,0-3.19.63,4.21,4.21,0,0,0-1.43,2.76,5,5,0,0,0,0,1.22,8.81,8.81,0,0,0,.18,1.18,6.18,6.18,0,0,0,.3,1,4.19,4.19,0,0,0,.36.71Zm9.32-3.44a6.29,6.29,0,0,0,.05-1.43,3.36,3.36,0,0,0-.35-1.24,2.9,2.9,0,0,0-.85-1,3.84,3.84,0,0,0-1.41-.64l-1,7a3.51,3.51,0,0,0,2.45-.61A3.07,3.07,0,0,0,164.67,100.4Z"/><path class="cls-2" d="M153.08,107.08l1.43.51-1,2.89,7.83,2.81,1-2.89,1.44.52-1.44,4-1.51-.16,0,.11a8.12,8.12,0,0,1,.55,2,4.8,4.8,0,0,1-.3,2.31,2.33,2.33,0,0,1-.7,1.07,2,2,0,0,1-1.06.39,4.55,4.55,0,0,1-1.41-.14,15.15,15.15,0,0,1-1.75-.53l.51-1.5a6.16,6.16,0,0,0,2.09.45,1,1,0,0,0,1-.75,3.7,3.7,0,0,0,.24-1.27,4.25,4.25,0,0,0-.14-1.1,5.16,5.16,0,0,0-.31-.87,3.4,3.4,0,0,0-.32-.57l-6.3-2.26-1.47,4.1-1.43-.51Z"/><path class="cls-2" d="M145,138.06l-5.21,5.76-1.25-1.12,5.21-5.77Z"/><path class="cls-2" d="M117.63,161.07l-4.78-4.72-.14.07,2.36,8.65-1.5.72-2.91-11.21,1.83-.87,4.68,4.71.06,0-.66-6.64,1.82-.88,7.07,9.22-1.58.76-5.49-7.2-.13.06.77,6.69Z"/><path class="cls-2" d="M96.76,160.16a6.16,6.16,0,0,1,.77-.9,6.65,6.65,0,0,1,1-.83,7.92,7.92,0,0,1,1.25-.68,8.13,8.13,0,0,1,1.36-.48,6.54,6.54,0,0,1,2.44-.2,4.69,4.69,0,0,1,2,.74,5.3,5.3,0,0,1,1.5,1.55,7.91,7.91,0,0,1,1,2.28,7.57,7.57,0,0,1,.25,2.57,5.08,5.08,0,0,1-.65,2.09,4.88,4.88,0,0,1-1.48,1.56,6.66,6.66,0,0,1-2.21,1,7.09,7.09,0,0,1-1.89.23,3.77,3.77,0,0,1-1.83-.51A4.46,4.46,0,0,1,98.73,167a9,9,0,0,1-1-3l8.5-2.18a4,4,0,0,0-1.83-2.69,4.13,4.13,0,0,0-3.09-.25,5.08,5.08,0,0,0-1.14.44q-.54.3-1,.63a5.81,5.81,0,0,0-.82.68,3.89,3.89,0,0,0-.51.6Zm6.8,7.24a6,6,0,0,0,1.33-.5,3.28,3.28,0,0,0,1-.81,2.87,2.87,0,0,0,.57-1.16,3.91,3.91,0,0,0,0-1.54l-6.83,1.75a3.48,3.48,0,0,0,1.51,2A3,3,0,0,0,103.56,167.4Z"/><path class="cls-2" d="M95.24,175.13l-3.63.2-.33-5.83h-.11a3.8,3.8,0,0,1-1.46,1.25,5.05,5.05,0,0,1-2,.52c-3.33.18-5.1-1.64-5.32-5.49a6,6,0,0,1,1.36-4.57,6.34,6.34,0,0,1,4.5-1.81,11.05,11.05,0,0,1,2.56.13,5.13,5.13,0,0,1,1.69.54l.76,13.64,1.89-.1Zm-7.38-5.4a3.1,3.1,0,0,0,2.16-.89,4.5,4.5,0,0,0,1.1-2.25l-.29-5.22a5.17,5.17,0,0,0-1.27-.36,7,7,0,0,0-1.53-.07,4.82,4.82,0,0,0-1.63.35,3.19,3.19,0,0,0-1.22.89,3.77,3.77,0,0,0-.72,1.46,6.32,6.32,0,0,0-.17,2.06,6.94,6.94,0,0,0,.27,1.62,4.07,4.07,0,0,0,.65,1.32,2.76,2.76,0,0,0,1.09.85A3.17,3.17,0,0,0,87.86,169.73Z"/><path class="cls-2" d="M53.75,170.48l-3.5-1.21,3.93-11.37c0-.13.09-.29.14-.49s.11-.41.16-.63l.15-.66c0-.21.07-.41.1-.58l-1.44-.49.48-1.4,2.88,1-.36,1.73.09,0a4.05,4.05,0,0,1,1.87-.87,4.46,4.46,0,0,1,2.35.19,4.67,4.67,0,0,1,3.09,2.6,6.85,6.85,0,0,1-.32,4.64,7.24,7.24,0,0,1-1.21,2.26,4.88,4.88,0,0,1-1.71,1.36,5.16,5.16,0,0,1-2.09.47,6.86,6.86,0,0,1-2.37-.42c-.3-.1-.57-.2-.8-.3a6.21,6.21,0,0,1-.63-.29,3.88,3.88,0,0,1-.53-.31l-.53-.37-1.06,3.06,1.81.62Zm6.07-13.42a3.12,3.12,0,0,0-2.29,0,3.85,3.85,0,0,0-1.73,1.68l-1.72,5a3.76,3.76,0,0,0,.89.84,7.18,7.18,0,0,0,1.5.68,3.82,3.82,0,0,0,3.05-.06,4.65,4.65,0,0,0,2.07-2.81,8.73,8.73,0,0,0,.41-1.7,3.91,3.91,0,0,0-.08-1.5,2.8,2.8,0,0,0-.69-1.23A3.47,3.47,0,0,0,59.82,157.06Z"/><path class="cls-2" d="M42,148.56a6.18,6.18,0,0,1,1.18-.1,6.74,6.74,0,0,1,1.32.14,8.8,8.8,0,0,1,1.37.39,9.21,9.21,0,0,1,1.31.62,6.57,6.57,0,0,1,1.87,1.58,4.57,4.57,0,0,1,.9,1.92,5.43,5.43,0,0,1,0,2.16,7.72,7.72,0,0,1-.93,2.3,7.36,7.36,0,0,1-1.63,2,4.78,4.78,0,0,1-4.08,1.1,6.72,6.72,0,0,1-2.26-.86,7.34,7.34,0,0,1-1.5-1.16,3.79,3.79,0,0,1-1-1.65,4.54,4.54,0,0,1,0-2.2A9,9,0,0,1,40,151.94l7.57,4.43a3.93,3.93,0,0,0,.59-3.2,4.14,4.14,0,0,0-2-2.35,5.08,5.08,0,0,0-1.12-.49q-.6-.17-1.17-.27a5.76,5.76,0,0,0-1.06-.09A4.16,4.16,0,0,0,42,150Zm-.26,9.93a6.74,6.74,0,0,0,1.3.58,3.2,3.2,0,0,0,1.29.13,2.83,2.83,0,0,0,1.22-.42,4,4,0,0,0,1.11-1.07l-6.08-3.56a3.5,3.5,0,0,0-.35,2.5A3.07,3.07,0,0,0,41.78,158.49Z"/><path class="cls-2" d="M34.41,143.36l-.19-.16-8.73,4.51L24,146.4l11.12-5.34,1.48,1.31-3.86,11.75-1.57-1.38Z"/><path class="cls-2" d="M22,128.22a5.64,5.64,0,0,1,1.13.36,6.7,6.7,0,0,1,1.17.63,9.2,9.2,0,0,1,1.12.88,8.22,8.22,0,0,1,1,1.07,6.25,6.25,0,0,1,1.13,2.16,4.55,4.55,0,0,1,.11,2.13,5.2,5.2,0,0,1-.84,2,7.8,7.8,0,0,1-1.72,1.79,7.59,7.59,0,0,1-2.27,1.23,4.83,4.83,0,0,1-4.19-.52,7.37,7.37,0,0,1-2.72-3.31,3.73,3.73,0,0,1-.25-1.88,4.54,4.54,0,0,1,.84-2,9,9,0,0,1,2.34-2.14l5.33,7a3.94,3.94,0,0,0,1.76-2.73,4.19,4.19,0,0,0-1-2.95,5.05,5.05,0,0,0-.86-.87,10.29,10.29,0,0,0-1-.7,6.52,6.52,0,0,0-.95-.48,4.47,4.47,0,0,0-.75-.24Zm-4,9.1a6,6,0,0,0,1,1,3,3,0,0,0,1.14.61,2.88,2.88,0,0,0,1.28.08,4,4,0,0,0,1.44-.58l-4.29-5.59A3.5,3.5,0,0,0,17.33,135,3.09,3.09,0,0,0,18,137.32Z"/><path class="cls-2" d="M6.49,130.33l-1.68-3.41,10.84-5.35a3.12,3.12,0,0,0,1.55-1.29,1.67,1.67,0,0,0-.1-1.48,3.47,3.47,0,0,0-.74-1,5.36,5.36,0,0,0-1.27-.81l.76-1.29a4.79,4.79,0,0,1,.86.47,5.55,5.55,0,0,1,1.41,1.31,3.93,3.93,0,0,1,.46.72,4.57,4.57,0,0,1,.47,1.44,2.48,2.48,0,0,1-.13,1.3,3,3,0,0,1-.83,1.16,7.27,7.27,0,0,1-1.64,1.07L7,127.86l.89,1.79Z"/><path class="cls-2" d="M9.94,113.3A6.31,6.31,0,0,1,5.36,113a5.18,5.18,0,0,1-2.61-3.53,5.94,5.94,0,0,1-.19-2.5,4.9,4.9,0,0,1,.77-2,5.33,5.33,0,0,1,1.56-1.46,8.24,8.24,0,0,1,2.18-.93,7.81,7.81,0,0,1,2.47-.29,5.2,5.2,0,0,1,2.09.54,4.89,4.89,0,0,1,1.61,1.37,6.5,6.5,0,0,1,1,2.17,5.85,5.85,0,0,1,.19,2.49,4.85,4.85,0,0,1-.77,2,5,5,0,0,1-1.56,1.47A8.17,8.17,0,0,1,9.94,113.3Zm-.49-1.82a7,7,0,0,0,1.48-.6,4.39,4.39,0,0,0,1.22-1,3.18,3.18,0,0,0,.7-1.35A3.89,3.89,0,0,0,11,104.48a5.09,5.09,0,0,0-3.43,0,6.53,6.53,0,0,0-1.5.6,4.31,4.31,0,0,0-1.21,1,3.34,3.34,0,0,0-.69,1.35,3.46,3.46,0,0,0,.06,1.74A3.31,3.31,0,0,0,6,111.46,5.18,5.18,0,0,0,9.45,111.48Z"/><path class="cls-2" d="M4.63,97.78l-.53,0-.68.08L2.73,98a3.67,3.67,0,0,0-.58.12l.1,1.52-1.47.09-.21-3,1.58-.34v-.11A5,5,0,0,1,.71,94.82,4.61,4.61,0,0,1,0,92.55a4.7,4.7,0,0,1,1.09-3.74c.84-.88,2.27-1.38,4.3-1.52a7.53,7.53,0,0,1,2.6.25,5.5,5.5,0,0,1,2,1.06,5.41,5.41,0,0,1,1.35,1.77A6.67,6.67,0,0,1,12,92.75a8.47,8.47,0,0,1,0,.85c0,.25,0,.48,0,.69s-.06.41-.11.61-.11.42-.18.65l4.76-.32L16.54,97Zm-2.91-5A3.36,3.36,0,0,0,2.05,94a3.84,3.84,0,0,0,1.69,1.72,2.63,2.63,0,0,0,1,.29l5.16-.34a4.08,4.08,0,0,0,.46-1.16,5.65,5.65,0,0,0,.08-1.66A3.74,3.74,0,0,0,9.07,90a5,5,0,0,0-3.55-.86,5.08,5.08,0,0,0-2.92,1A2.91,2.91,0,0,0,1.72,92.73Z"/><path class="cls-2" d="M11.32,73.32a5.63,5.63,0,0,1,.56,1,7.86,7.86,0,0,1,.39,1.27A9.37,9.37,0,0,1,12.44,77a7.79,7.79,0,0,1,0,1.45,6.7,6.7,0,0,1-.72,2.34,4.79,4.79,0,0,1-1.41,1.58,5.33,5.33,0,0,1-2,.83,7.55,7.55,0,0,1-2.48.05,7.38,7.38,0,0,1-2.47-.71A4.89,4.89,0,0,1,1.6,81.21a5,5,0,0,1-.91-1.95,6.66,6.66,0,0,1-.1-2.42A7.45,7.45,0,0,1,1.07,75a3.77,3.77,0,0,1,1.15-1.51,4.45,4.45,0,0,1,2-.86,9.14,9.14,0,0,1,3.16.12l-1.1,8.71a4,4,0,0,0,3.17-.71A4.15,4.15,0,0,0,10.85,78a5.52,5.52,0,0,0,0-1.22,10.73,10.73,0,0,0-.21-1.18,6,6,0,0,0-.33-1,4.79,4.79,0,0,0-.37-.7ZM2.09,77a5.65,5.65,0,0,0,0,1.42,3.16,3.16,0,0,0,.38,1.24,3.09,3.09,0,0,0,.86,1,3.91,3.91,0,0,0,1.43.6l.88-7a3.46,3.46,0,0,0-2.43.67A3,3,0,0,0,2.09,77Z"/><path class="cls-2" d="M13.51,70l-1.44-.48,1-2.91L5.14,64l-1,2.91-1.44-.48,1.34-4,1.52.12,0-.11a8,8,0,0,1-.59-2,4.76,4.76,0,0,1,.24-2.32A2.28,2.28,0,0,1,5.94,57a2.05,2.05,0,0,1,1-.42,4.77,4.77,0,0,1,1.42.1,17.3,17.3,0,0,1,1.76.49l-.48,1.52a5.85,5.85,0,0,0-2.1-.4,1,1,0,0,0-1,.77,3.67,3.67,0,0,0-.21,1.27,4.62,4.62,0,0,0,.16,1.1,5.31,5.31,0,0,0,.34.86,3.33,3.33,0,0,0,.33.57L13.59,65,15,60.85l1.44.48Z"/><path class="cls-2" d="M20.84,38.87,25.92,33l1.27,1.09L22.11,40Z"/></g></g></svg>